# xmcd
#
# Track frame offsets:
#	150
#	17103
#	34002
#	48722
#	65615
#	82543
#	96683
#	111419
#	133435
#	156378
#
# Disc length: 2341 seconds
#
# Revision: 1
# Processed by: cddbd v1.5.1PL2 Copyright (c) Steve Scherf et al.
# Submitted via: audiograbber 1.83.01
#
DISCID=8f09230a
DTITLE=Trisha Yearwood - Everybody Knows
DYEAR=1900
DGENRE=
TTITLE0=A Lover Is Forever
TTITLE1=Believe Me Baby
TTITLE2=Everybody Knows
TTITLE3=Hello, I'm Gone
TTITLE4=I Need You
TTITLE5=I Want To Live Again
TTITLE6=It's Alright
TTITLE7=Little Hercules
TTITLE8=Maybe It's Love
TTITLE9=Under The Rainbow
EXTD=
EXTT0=
EXTT1=
EXTT2=
EXTT3=
EXTT4=
EXTT5=
EXTT6=
EXTT7=
EXTT8=
EXTT9=
PLAYORDER=
